<svg width="256" height="256" viewBox="0 0 256 256" fill="none" xmlns="http://www.w3.org/2000/svg">
<path d="M223 105.6C218.9 101.4 214.8 97 213 92.8C211.2 88.6 211.3 83.3 211.2 77.4C211.1 68.4 210.9 58.2 204.4 51.6C197.9 45 187.6 44.9 178.6 44.8C172.7 44.7 167.2 44.6 163.2 43C159.2 41.4 154.6 37.1 150.4 33C143.7 26.6 136.8 20 128 20C119.2 20 112.3 26.6 105.6 33C101.4 37.1 97 41.2 92.8 43C88.6 44.8 83.3 44.7 77.4 44.8C68.4 44.9 58.2 45.1 51.6 51.6C45 58.1 44.9 68.4 44.8 77.4C44.7 83.3 44.6 88.8 43 92.8C41.4 96.8 37.1 101.4 33 105.6C26.6 112.3 20 119.2 20 128C20 136.8 26.6 143.7 33 150.4C37.1 154.6 41.2 159 43 163.2C44.8 167.4 44.7 172.7 44.8 178.6C44.9 187.6 45.1 197.8 51.6 204.4C58.1 211 68.4 211.1 77.4 211.2C83.3 211.3 88.8 211.4 92.8 213C96.8 214.6 101.4 218.9 105.6 223C112.3 229.4 119.2 236 128 236C136.8 236 143.7 229.4 150.4 223C154.6 218.9 159 214.8 163.2 213C167.4 211.2 172.7 211.3 178.6 211.2C187.6 211.1 197.8 210.9 204.4 204.4C211 197.9 211.1 187.6 211.2 178.6C211.3 172.7 211.4 167.2 213 163.2C214.6 159.2 218.9 154.6 223 150.4C229.4 143.7 236 136.8 236 128C236 119.2 229.4 112.3 223 105.6ZM217.2 144.9C212.7 149.6 208 154.5 205.6 160.2C203.2 165.9 203.3 172.1 203.2 178.5C203.1 186.7 203 194.5 198.7 198.7C194.4 202.9 186.7 203.1 178.5 203.2C172.1 203.3 165.5 203.4 160.2 205.6C154.9 207.8 149.6 212.7 144.9 217.2C140.2 221.7 133.6 228 128 228C122.4 228 116.9 222.8 111.1 217.2C105.3 211.6 101.5 208 95.8 205.6C90.1 203.2 83.9 203.3 77.5 203.2C69.3 203.1 61.5 203 57.3 198.7C53.1 194.4 52.9 186.7 52.8 178.5C52.7 172.1 52.6 165.5 50.4 160.2C48.2 154.9 43.3 149.6 38.8 144.9C34.3 140.2 28 133.6 28 128C28 122.4 33.2 116.9 38.8 111.1C44.4 105.3 48 101.5 50.4 95.8C52.8 90.1 52.7 83.9 52.8 77.5C52.9 69.3 53 61.5 57.3 57.3C61.6 53.1 69.3 52.9 77.5 52.8C83.9 52.7 90.5 52.6 95.8 50.4C101.1 48.2 106.4 43.3 111.1 38.8C115.8 34.3 122.4 28 128 28C133.6 28 139.1 33.2 144.9 38.8C150.7 44.4 154.5 48 160.2 50.4C165.9 52.8 172.1 52.7 178.5 52.8C186.7 52.9 194.5 53 198.7 57.3C202.9 61.6 203.1 69.3 203.2 77.5C203.3 83.9 203.4 90.5 205.6 95.8C207.8 101.1 212.7 106.4 217.2 111.1C221.7 115.8 228 122.4 228 128C228 133.6 222.8 139.1 217.2 144.9V144.9ZM136 180C136 181.582 135.531 183.129 134.652 184.445C133.773 185.76 132.523 186.786 131.061 187.391C129.6 187.997 127.991 188.155 126.439 187.846C124.887 187.538 123.462 186.776 122.343 185.657C121.224 184.538 120.462 183.113 120.154 181.561C119.845 180.009 120.003 178.4 120.609 176.939C121.214 175.477 122.24 174.227 123.555 173.348C124.871 172.469 126.418 172 128 172C130.122 172 132.157 172.843 133.657 174.343C135.157 175.843 136 177.878 136 180ZM160 108C159.991 115.797 157.144 123.324 151.992 129.176C146.839 135.028 139.733 138.804 132 139.8V144C132 145.061 131.579 146.078 130.828 146.828C130.078 147.579 129.061 148 128 148C126.939 148 125.922 147.579 125.172 146.828C124.421 146.078 124 145.061 124 144V136C124 134.939 124.421 133.922 125.172 133.172C125.922 132.421 126.939 132 128 132C132.747 132 137.387 130.592 141.334 127.955C145.28 125.318 148.357 121.57 150.173 117.184C151.99 112.799 152.465 107.973 151.539 103.318C150.613 98.6623 148.327 94.3859 144.971 91.0294C141.614 87.673 137.338 85.3872 132.682 84.4612C128.027 83.5351 123.201 84.0104 118.816 85.8269C114.43 87.6434 110.682 90.7195 108.045 94.6663C105.408 98.6131 104 103.253 104 108C104 109.061 103.579 110.078 102.828 110.828C102.078 111.579 101.061 112 100 112C98.9391 112 97.9217 111.579 97.1716 110.828C96.4214 110.078 96 109.061 96 108C96 99.5131 99.3714 91.3737 105.373 85.3726C111.374 79.3714 119.513 76 128 76C136.487 76 144.626 79.3714 150.627 85.3726C156.629 91.3737 160 99.5131 160 108V108Z" fill="white"/>
</svg>
